<?xml version="1.0" encoding="UTF-8"?>
<svg width="24px" height="24px" viewBox="0 0 24 24" version="1.1" xmlns="http://www.w3.org/2000/svg" xmlns:xlink="http://www.w3.org/1999/xlink">
    <title>Icons/ic_ Copy</title>
    <g id="Icons/ic_-Copy" stroke="none" stroke-width="1" fill="none" fill-rule="evenodd">
        <path d="M12,2.25 C17.3847763,2.25 21.75,6.61522369 21.75,12 C21.75,17.3847763 17.3847763,21.75 12,21.75 C6.61522369,21.75 2.25,17.3847763 2.25,12 C2.25,6.61522369 6.61522369,2.25 12,2.25 Z M12,3.75 C7.44365081,3.75 3.75,7.44365081 3.75,12 C3.75,16.5563492 7.44365081,20.25 12,20.25 C16.5563492,20.25 20.25,16.5563492 20.25,12 C20.25,7.44365081 16.5563492,3.75 12,3.75 Z M12,6.25 C12.3796958,6.25 12.693491,6.53215388 12.7431534,6.89822944 L12.75,7 L12.75,11.689 L15.5303301,14.4696699 C15.7965966,14.7359365 15.8208027,15.1526002 15.6029482,15.4462117 L15.5303301,15.5303301 C15.2640635,15.7965966 14.8473998,15.8208027 14.5537883,15.6029482 L14.4696699,15.5303301 L11.4696699,12.5303301 C11.3571481,12.4178083 11.2840724,12.273214 11.2593431,12.1180341 L11.25,12 L11.25,7 C11.25,6.58578644 11.5857864,6.25 12,6.25 Z" id="Combined-Shape" fill="#000000"></path>
    </g>
</svg>