<?xml version="1.0" encoding="UTF-8"?>
<svg width="24px" height="24px" viewBox="0 0 24 24" version="1.1" xmlns="http://www.w3.org/2000/svg" xmlns:xlink="http://www.w3.org/1999/xlink">
    <title>ic_dress_code</title>
    <g id="ic_dress_code" stroke="none" stroke-width="1" fill="none" fill-rule="evenodd">
        <path d="M21.3690909,9.10195286 L19.0538721,9.10195286 C18.6632997,8.45151515 18.1413468,7.84740741 17.4883502,7.2020202 C17.2824242,6.99858586 16.9645791,6.9613468 16.7173064,7.11164983 L13.2546801,9.21535354 C13.0388552,9.14222222 12.8080808,9.10188552 12.5678788,9.10188552 L11.4321886,9.10188552 C11.1919865,9.10188552 10.9612121,9.14222222 10.7453872,9.21535354 L7.28276094,7.11164983 C7.03548822,6.9613468 6.71757576,6.99858586 6.51171717,7.2020202 C5.85872054,7.84740741 5.33676768,8.45151515 4.94619529,9.10195286 L2.63090909,9.10195286 C2.28249158,9.10195286 2,9.38444444 2,9.73286195 L2,13.8969024 C2,14.2453199 2.28249158,14.5278114 2.63090909,14.5278114 L4.7826936,14.5278114 C5.50781145,15.7677441 6.54350168,16.462963 6.60666667,16.5047138 C6.71212121,16.5746801 6.83353535,16.6097643 6.95515152,16.6097643 C7.06855219,16.6097643 7.18195286,16.5792593 7.2826936,16.5180471 L10.7453199,14.4143434 C10.9611448,14.4874747 11.1919192,14.5278114 11.4321212,14.5278114 L12.5678114,14.5278114 C12.8080135,14.5278114 13.0387879,14.4874747 13.2546128,14.4143434 L16.7172391,16.5180471 C16.8179798,16.5792593 16.9314478,16.6097643 17.0447811,16.6097643 C17.1663973,16.6097643 17.2877441,16.5747475 17.393266,16.5047138 C17.456431,16.462963 18.4921212,15.7677441 19.2172391,14.5278114 L21.3690236,14.5278114 C21.7174411,14.5278114 21.9999327,14.2453199 21.9999327,13.8969024 L21.9999327,9.73286195 C21.9999327,9.38444444 21.7175084,9.10195286 21.3690909,9.10195286 Z M4.1040404,12.4793266 C4.13090909,12.7545455 4.18208754,13.016431 4.25010101,13.2659933 L3.26181818,13.2659933 L3.26181818,10.363771 L4.36996633,10.363771 C4.12505051,11.0702357 4.0356229,11.776431 4.1040404,12.4793266 Z M9.66377104,13.5950168 L6.99919192,15.2138721 C6.48518519,14.7742761 5.49185185,13.7539394 5.35905724,12.3468013 C5.24141414,11.1009428 5.81239057,9.79212121 7.05750842,8.45117845 L9.66383838,10.0346801 C9.42646465,10.379798 9.28713805,10.7973737 9.28713805,11.2470034 L9.28713805,12.3826263 C9.28707071,12.8322559 9.42632997,13.2498316 9.66377104,13.5950168 Z M13.4511111,12.3826263 C13.4511111,12.8696296 13.0548822,13.2658586 12.5678788,13.2658586 L11.4321886,13.2658586 C10.9451852,13.2658586 10.5489562,12.8696296 10.5489562,12.3826263 L10.5489562,11.2470034 C10.5489562,10.76 10.9451852,10.363771 11.4321886,10.363771 L12.5678788,10.363771 C13.0548822,10.363771 13.4511111,10.76 13.4511111,11.2470034 L13.4511111,12.3826263 L13.4511111,12.3826263 Z M18.6410101,12.3468013 C18.5081481,13.7539394 17.5148148,14.7742761 17.0008754,15.2138721 L14.3362963,13.5950168 C14.57367,13.2498316 14.7129966,12.8322559 14.7129966,12.3826263 L14.7129966,11.2470034 C14.7129966,10.7973737 14.5737374,10.379798 14.3362963,10.0346801 L16.9426263,8.45117845 C18.1876768,9.79218855 18.7586532,11.1009428 18.6410101,12.3468013 Z M20.7381818,13.2659933 L19.749899,13.2659933 C19.8179125,13.016431 19.8691582,12.7545455 19.8959596,12.4793266 C19.9643771,11.776431 19.8750168,11.0702357 19.6300337,10.363771 L20.7381818,10.363771 L20.7381818,13.2659933 Z" id="Shape" fill="#FF5851"></path>
    </g>
</svg>