<?xml version="1.0" encoding="UTF-8"?>
<svg width="18px" height="20px" viewBox="0 0 18 20" version="1.1" xmlns="http://www.w3.org/2000/svg" xmlns:xlink="http://www.w3.org/1999/xlink">
    <title>ic_date</title>
    <g id="Pages" stroke="none" stroke-width="1" fill="none" fill-rule="evenodd">
        <g id="9---Dashboard" transform="translate(-1123.000000, -103.000000)" fill="#646368">
            <g id="Group-8" transform="translate(330.000000, 90.000000)">
                <g id="Group-2" transform="translate(780.000000, 0.000000)">
                    <g id="Icons/ic_" transform="translate(10.000000, 11.000000)">
                        <path d="M16,2.25 C16.3796958,2.25 16.693491,2.53215388 16.7431534,2.89822944 L16.75,3 L16.75,4.25 L18,4.25 C19.4625318,4.25 20.6584043,5.3917046 20.7449812,6.83247767 L20.75,7 L20.75,19 C20.75,20.5187831 19.5187831,21.75 18,21.75 L18,21.75 L6,21.75 C4.48121694,21.75 3.25,20.5187831 3.25,19 L3.25,19 L3.25,7 C3.25,5.48121694 4.48121694,4.25 6,4.25 L6,4.25 L7.25,4.25 L7.25,3 C7.25,2.58578644 7.58578644,2.25 8,2.25 C8.37969577,2.25 8.69349096,2.53215388 8.74315338,2.89822944 L8.75,3 L8.75,4.25 L15.25,4.25 L15.25,3 C15.25,2.58578644 15.5857864,2.25 16,2.25 Z M19.25,11.75 L4.75,11.75 L4.75,19 C4.75,19.6472087 5.24187466,20.1795339 5.87219476,20.2435464 L6,20.25 L18,20.25 C18.6903559,20.25 19.25,19.6903559 19.25,19 L19.25,19 L19.25,11.75 Z M10,14.25 C10.4142136,14.25 10.75,14.5857864 10.75,15 L10.75,15 L10.75,17 C10.75,17.4142136 10.4142136,17.75 10,17.75 L10,17.75 L8,17.75 C7.58578644,17.75 7.25,17.4142136 7.25,17 L7.25,17 L7.25,15 C7.25,14.5857864 7.58578644,14.25 8,14.25 L8,14.25 Z M9.25,15.75 L8.75,15.75 L8.75,16.25 L9.25,16.25 L9.25,15.75 Z M7.25,5.75 L6,5.75 C5.30964406,5.75 4.75,6.30964406 4.75,7 L4.75,7 L4.75,10.25 L19.25,10.25 L19.25,7 C19.25,6.35279131 18.7581253,5.8204661 18.1278052,5.75645361 L18,5.75 L16.75,5.75 L16.75,7 C16.75,7.41421356 16.4142136,7.75 16,7.75 C15.6203042,7.75 15.306509,7.46784612 15.2568466,7.10177056 L15.25,7 L15.25,5.75 L8.75,5.75 L8.75,7 C8.75,7.41421356 8.41421356,7.75 8,7.75 C7.62030423,7.75 7.30650904,7.46784612 7.25684662,7.10177056 L7.25,7 L7.25,5.75 Z" id="Combined-Shape"></path>
                    </g>
                </g>
            </g>
        </g>
    </g>
</svg>