<?xml version="1.0" encoding="UTF-8"?>
<svg width="22px" height="16px" viewBox="0 0 22 16" version="1.1" xmlns="http://www.w3.org/2000/svg" xmlns:xlink="http://www.w3.org/1999/xlink">
    <title>ic_eye</title>
    <defs>
        <filter id="filter-1">
            <feColorMatrix in="SourceGraphic" type="matrix" values="0 0 0 0 0.392157 0 0 0 0 0.388235 0 0 0 0 0.407843 0 0 0 1.000000 0"></feColorMatrix>
        </filter>
    </defs>
    <g id="Pages" stroke="none" stroke-width="1" fill="none" fill-rule="evenodd">
        <g id="1---Sign-In" transform="translate(-1218.000000, -458.000000)">
            <g id="Group-7" transform="translate(908.000000, 156.000000)">
                <g id="Group-5" transform="translate(0.000000, 170.000000)">
                    <g id="Group-3" transform="translate(0.000000, 57.000000)">
                        <g id="Group-2" transform="translate(0.000000, 60.000000)">
                            <g id="Icons/ic_" transform="translate(309.000000, 11.000000)" filter="url(#filter-1)">
                                <g>
                                    <path d="M12,4.25 C16.1919187,4.25 19.6863645,6.62451725 22.4456095,11.2748409 L22.6511738,11.6278808 L22.6924964,11.7118974 L22.7094879,11.7568105 L22.7268372,11.814281 L22.7448469,11.91059 L22.7500852,12.0073458 L22.7428845,12.1033294 L22.724,12.19 C22.7151609,12.2281846 22.7047821,12.2585128 22.6924964,12.2881026 L22.6511738,12.3721192 C19.9287124,17.1361715 16.470107,19.6268852 12.3130856,19.7455493 L12,19.75 C7.70328335,19.75 4.13934918,17.2552728 1.34882623,12.3721192 C1.21705792,12.141537 1.21705792,11.858463 1.34882623,11.6278808 C4.13934918,6.74472719 7.70328335,4.25 12,4.25 Z M12,5.75 C8.49152479,5.75 5.52277469,7.69884458 3.05741267,11.6882998 L2.868,11.999 L3.05741267,12.3117002 C5.45429241,16.1903372 8.32698265,18.1401563 11.7088757,18.2454868 L12,18.25 C15.5084752,18.25 18.4772253,16.3011554 20.9425873,12.3117002 L21.131,11.999 L20.9425873,11.6882998 C18.5457076,7.80966278 15.6730174,5.85984369 12.2911243,5.75451318 L12,5.75 Z M12,9.25 C13.5187831,9.25 14.75,10.4812169 14.75,12 C14.75,13.5187831 13.5187831,14.75 12,14.75 C10.4812169,14.75 9.25,13.5187831 9.25,12 C9.25,10.4812169 10.4812169,9.25 12,9.25 Z M12,10.75 C11.3096441,10.75 10.75,11.3096441 10.75,12 C10.75,12.6903559 11.3096441,13.25 12,13.25 C12.6903559,13.25 13.25,12.6903559 13.25,12 C13.25,11.3096441 12.6903559,10.75 12,10.75 Z" id="Combined-Shape" fill="#FF5851"></path>
                                </g>
                            </g>
                        </g>
                    </g>
                </g>
            </g>
        </g>
    </g>
</svg>