<svg version="1.2" baseProfile="tiny-ps" xmlns="http://www.w3.org/2000/svg" viewBox="0 0 16 16" width="16" height="16">
    <title>ic_filter-svg</title>
    <path id="Path" fill-rule="evenodd" class="shp0" d="M14.42 0C14.5 0 14.59 0.01 14.67 0.04C15.18 0.22 15.58 0.63 15.75 1.14C15.9 1.6 15.86 2.09 15.63 2.51L15.54 2.67L15.47 2.75L10.67 8.04L10.67 14.75C10.67 15.33 10.04 15.68 9.56 15.41L9.47 15.35L5.47 12.35C5.31 12.23 5.2 12.05 5.18 11.85L5.17 11.75L5.17 8.04L0.36 2.75L0.3 2.67C-0.01 2.22 -0.08 1.65 0.09 1.14C0.24 0.68 0.58 0.3 1.02 0.1L1.22 0.03L1.32 0.01L1.37 0L14.42 0ZM14.24 1.5L1.59 1.5L1.57 1.52L1.54 1.56L1.51 1.61C1.49 1.67 1.5 1.73 1.52 1.78L1.53 1.81L6.47 7.25C6.57 7.36 6.64 7.49 6.66 7.64L6.67 7.75L6.67 11.38L9.17 13.25L9.17 7.75C9.17 7.6 9.21 7.46 9.3 7.33L9.36 7.25L14.31 1.81L14.32 1.78C14.34 1.75 14.34 1.71 14.34 1.67L14.33 1.61C14.31 1.58 14.29 1.55 14.27 1.52L14.24 1.5Z" />
</svg>