<?xml version="1.0" encoding="UTF-8"?>
<svg width="24px" height="24px" viewBox="0 0 24 24" version="1.1" xmlns="http://www.w3.org/2000/svg" xmlns:xlink="http://www.w3.org/1999/xlink">
    <title>ic_facebook</title>
    <g id="ic_facebook" stroke="none" stroke-width="1" fill="none" fill-rule="evenodd">
        <path d="M16.984127,2 L7,2 C4.25396825,2 2,4.25396825 2,7.01587302 L2,17 C2,19.7460317 4.25396825,22 7,22 L16.984127,22 C19.7460317,22 22,19.7460317 22,16.984127 L22,7.01587302 C22,4.25396825 19.7460317,2 16.984127,2 Z M14.6825397,12 L12.7936508,12 L12.7936508,18.1904762 L10.4126984,18.1904762 L10.4126984,12 L9.14285714,12 L9.14285714,9.46031746 L10.2539683,9.46031746 L10.2539683,8.38095238 C10.2539683,7.36507937 10.7619048,5.76190476 12.9047619,5.76190476 L14.8571429,5.76190476 L14.8571429,7.87301587 L13.4761905,7.87301587 C13.2539683,7.87301587 12.952381,8.01587302 12.952381,8.50793651 L12.952381,9.46031746 L14.9047619,9.46031746 L14.6825397,12 Z" id="Shape" fill="#000000"></path>
    </g>
</svg>