<?xml version="1.0" encoding="UTF-8"?>
<svg width="24px" height="24px" viewBox="0 0 24 24" version="1.1" xmlns="http://www.w3.org/2000/svg" xmlns:xlink="http://www.w3.org/1999/xlink">
    <title>ic_mobile</title>
    <g id="ic_mobile" stroke="none" stroke-width="1" fill="none" fill-rule="evenodd">
        <path d="M16,3.25 C16.9664983,3.25 17.75,4.03350169 17.75,5 L17.75,5 L17.75,19 C17.75,19.9664983 16.9664983,20.75 16,20.75 L16,20.75 L8,20.75 C7.03350169,20.75 6.25,19.9664983 6.25,19 L6.25,19 L6.25,5 C6.25,4.03350169 7.03350169,3.25 8,3.25 L8,3.25 Z M10.2928055,4.749635 L8,4.75 C7.86192881,4.75 7.75,4.86192881 7.75,5 L7.75,5 L7.75,19 C7.75,19.1380712 7.86192881,19.25 8,19.25 L8,19.25 L16,19.25 C16.1380712,19.25 16.25,19.1380712 16.25,19 L16.25,19 L16.25,5 C16.25,4.86192881 16.1380712,4.75 16,4.75 L16,4.75 L13.7071945,4.749635 C13.7349146,4.82793285 13.75,4.91220473 13.75,5 C13.75,5.37969577 13.4678461,5.69349096 13.1017706,5.74315338 L13,5.75 L11,5.75 C10.5857864,5.75 10.25,5.41421356 10.25,5 C10.25,4.91220473 10.2650854,4.82793285 10.2928055,4.749635 Z M12,16.25 C12.3796958,16.25 12.693491,16.5321539 12.7431534,16.8982294 L12.75,17.01 C12.75,17.4242136 12.4142136,17.76 12,17.76 C11.6203042,17.76 11.306509,17.4778461 11.2568466,17.1117706 L11.25,17 C11.25,16.5857864 11.5857864,16.25 12,16.25 Z" id="Combined-Shape" fill="#FF5851"></path>
    </g>
</svg>