<?xml version="1.0" encoding="UTF-8"?>
<svg width="18px" height="20px" viewBox="0 0 18 20" version="1.1" xmlns="http://www.w3.org/2000/svg" xmlns:xlink="http://www.w3.org/1999/xlink">
    <title>ic_notofication</title>
    <g id="Components" stroke="none" stroke-width="1" fill="none" fill-rule="evenodd">
        <g id="Navbar/Default" transform="translate(-1237.000000, -20.000000)" fill="#000000">
            <g id="Icons/ic_" transform="translate(1234.000000, 18.000000)">
                <path d="M11.7512455,2 C13.0425779,2 14.1260258,2.89005988 14.4215752,4.0901659 L14.4582455,4.269 L14.5779933,4.33443973 C16.8005705,5.59267394 18.2674408,7.87478427 18.4825239,10.4613836 L18.5012455,10.75 L18.4958106,13.6598733 C18.6198099,14.6842704 19.2229053,15.5889135 20.1208106,16.0973733 C20.7609229,16.4598518 20.5444521,17.4083391 19.8531864,17.4938163 L19.7512455,17.5 L15.501,17.5 L15.5012455,17.75 C15.5012455,19.8210678 13.8223133,21.5 11.7512455,21.5 C9.74698629,21.5 8.10997172,19.9276389 8.00644347,17.9491586 L8.00124546,17.75 L8.001,17.5 L3.75124546,17.5 C2.98059752,17.5 2.71108644,16.4771127 3.38168037,16.0973733 C4.21972529,15.6228108 4.80095808,14.8031286 4.97112838,13.9363504 L5.00124546,13.75 L5.00207027,10.7148356 C5.12748474,8.04288968 6.61960639,5.63911892 8.9244979,4.33442931 L9.04324546,4.269 L9.04555165,4.25568402 C9.26869744,3.02626633 10.3091931,2.08160608 11.5837231,2.00501879 L11.7512455,2 Z M14.001,17.5 L9.501,17.5 L9.50124546,17.75 C9.50124546,18.9926407 10.5086048,20 11.7512455,20 C12.9421095,20 13.9168904,19.0748384 13.9960547,17.9040488 L14.0012455,17.75 L14.001,17.5 Z M11.7512455,3.5 C11.1040368,3.5 10.5717116,3.99187466 10.5076991,4.62219476 L10.4985121,4.81537851 L10.4943988,4.85177056 L10.4744547,4.94937971 L10.4423067,5.04193385 L10.3988485,5.12853936 L10.3702879,5.17363688 L10.3105712,5.24994581 L10.2815755,5.28033009 L10.2406419,5.31857279 L10.160926,5.37832799 L10.0718492,5.42802155 C8.05979862,6.37942345 6.7115177,8.32530135 6.51837665,10.4983046 L6.50124546,10.75 L6.49581055,13.8401267 C6.40519567,14.5887246 6.13952644,15.2935662 5.73247055,15.9041501 L5.66424546,16 L17.8412455,16 L17.8348848,15.9901884 C17.4346641,15.4116937 17.1591709,14.7366375 17.0364542,13.9983806 L17.0012455,13.75 L17.0020703,10.7851644 C16.8937052,8.47645539 15.5200789,6.41601583 13.4306417,5.42802155 C13.2012289,5.31954327 13.044532,5.10383801 13.0089424,4.85731617 L13.0012455,4.75 C13.0012455,4.05964406 12.4416014,3.5 11.7512455,3.5 Z" id="Combined-Shape"></path>
            </g>
        </g>
    </g>
</svg>