<?xml version="1.0" encoding="UTF-8"?>
<svg width="16px" height="20px" viewBox="0 0 16 20" version="1.1" xmlns="http://www.w3.org/2000/svg" xmlns:xlink="http://www.w3.org/1999/xlink">
    <title>ic_password</title>
    <defs>
        <filter id="filter-1">
            <feColorMatrix in="SourceGraphic" type="matrix" values="0 0 0 0 0.392157 0 0 0 0 0.388235 0 0 0 0 0.407843 0 0 0 1.000000 0"></feColorMatrix>
        </filter>
    </defs>
    <g id="Pages" stroke="none" stroke-width="1" fill="none" fill-rule="evenodd">
        <g id="1---Sign-In" transform="translate(-922.000000, -456.000000)">
            <g id="Group-7" transform="translate(908.000000, 156.000000)">
                <g id="Group-5" transform="translate(0.000000, 170.000000)">
                    <g id="Group-3" transform="translate(0.000000, 57.000000)">
                        <g id="Group-2" transform="translate(0.000000, 60.000000)">
                            <g id="ic_passwors" transform="translate(10.000000, 11.000000)" filter="url(#filter-1)">
                                <g>
                                    <path d="M12,2.25 C14.5504817,2.25 16.6314697,4.26014129 16.7451121,6.782572 L16.75,7 L16.75,10.25 L17,10.25 C18.4625318,10.25 19.6584043,11.3917046 19.7449812,12.8324777 L19.75,13 L19.75,19 C19.75,20.5187831 18.5187831,21.75 17,21.75 L17,21.75 L7,21.75 C5.48121694,21.75 4.25,20.5187831 4.25,19 L4.25,19 L4.25,13 C4.25,11.4812169 5.48121694,10.25 7,10.25 L7,10.25 L7.25,10.25 L7.25,7 C7.25,4.37664744 9.37664744,2.25 12,2.25 Z M17,11.75 L7,11.75 C6.30964406,11.75 5.75,12.3096441 5.75,13 L5.75,13 L5.75,19 C5.75,19.6903559 6.30964406,20.25 7,20.25 L7,20.25 L17,20.25 C17.6903559,20.25 18.25,19.6903559 18.25,19 L18.25,19 L18.25,13 C18.25,12.3096441 17.6903559,11.75 17,11.75 L17,11.75 Z M12,14.25 C12.9664983,14.25 13.75,15.0335017 13.75,16 C13.75,16.9664983 12.9664983,17.75 12,17.75 C11.0335017,17.75 10.25,16.9664983 10.25,16 C10.25,15.0335017 11.0335017,14.25 12,14.25 Z M12,15.75 C11.8619288,15.75 11.75,15.8619288 11.75,16 C11.75,16.1380712 11.8619288,16.25 12,16.25 C12.1380712,16.25 12.25,16.1380712 12.25,16 C12.25,15.8619288 12.1380712,15.75 12,15.75 Z M12,3.75 C10.2669685,3.75 8.85075407,5.10645477 8.75514479,6.81557609 L8.75,7 L8.75,10.25 L15.25,10.25 L15.25,7 C15.25,5.20507456 13.7949254,3.75 12,3.75 Z" id="Combined-Shape" fill="#FF5851"></path>
                                </g>
                            </g>
                        </g>
                    </g>
                </g>
            </g>
        </g>
    </g>
</svg>