<?xml version="1.0" encoding="UTF-8"?>
<svg width="14px" height="14px" viewBox="0 0 14 14" version="1.1" xmlns="http://www.w3.org/2000/svg" xmlns:xlink="http://www.w3.org/1999/xlink">
    <title>ic_popup_close</title>
    <g id="Pages" stroke="none" stroke-width="1" fill="none" fill-rule="evenodd">
        <g id="11---Add-Booking" transform="translate(-896.000000, -127.000000)" fill="#000000">
            <g id="Group-6" transform="translate(515.000000, 109.000000)">
                <g id="Icons/ic_" transform="translate(376.000000, 13.000000)">
                    <path d="M6.44621165,5.39705176 L6.53033009,5.46966991 L12,10.939 L17.4696699,5.46966991 C17.7625631,5.1767767 18.2374369,5.1767767 18.5303301,5.46966991 C18.7965966,5.73593648 18.8208027,6.15260016 18.6029482,6.44621165 L18.5303301,6.53033009 L13.061,12 L18.5303301,17.4696699 C18.8232233,17.7625631 18.8232233,18.2374369 18.5303301,18.5303301 C18.2640635,18.7965966 17.8473998,18.8208027 17.5537883,18.6029482 L17.4696699,18.5303301 L12,13.061 L6.53033009,18.5303301 C6.23743687,18.8232233 5.76256313,18.8232233 5.46966991,18.5303301 C5.20340335,18.2640635 5.1791973,17.8473998 5.39705176,17.5537883 L5.46966991,17.4696699 L10.939,12 L5.46966991,6.53033009 C5.1767767,6.23743687 5.1767767,5.76256313 5.46966991,5.46966991 C5.73593648,5.20340335 6.15260016,5.1791973 6.44621165,5.39705176 Z" id="Combined-Shape"></path>
                </g>
            </g>
        </g>
    </g>
</svg>