<?xml version="1.0" encoding="UTF-8"?>
<svg width="20px" height="20px" viewBox="0 0 20 20" version="1.1" xmlns="http://www.w3.org/2000/svg" xmlns:xlink="http://www.w3.org/1999/xlink">
    <title>ic_radiobtn</title>
    <g id="Pages" stroke="none" stroke-width="1" fill="none" fill-rule="evenodd">
        <g id="3---Register" transform="translate(-910.000000, -722.000000)" fill="#FF5851">
            <g id="Group-8" transform="translate(908.000000, 125.000000)">
                <g id="Group-5" transform="translate(0.000000, 231.000000)">
                    <g id="Group-7" transform="translate(0.000000, 356.000000)">
                        <g id="Combined-Shape" transform="translate(0.000000, 8.000000)">
                            <path d="M12,2.25 C17.3847763,2.25 21.75,6.61522369 21.75,12 C21.75,17.3847763 17.3847763,21.75 12,21.75 C6.61522369,21.75 2.25,17.3847763 2.25,12 C2.25,6.61522369 6.61522369,2.25 12,2.25 Z M12,3.75 C7.44365081,3.75 3.75,7.44365081 3.75,12 C3.75,16.5563492 7.44365081,20.25 12,20.25 C16.5563492,20.25 20.25,16.5563492 20.25,12 C20.25,7.44365081 16.5563492,3.75 12,3.75 Z M15.5303301,9.46966991 C15.7965966,9.73593648 15.8208027,10.1526002 15.6029482,10.4462117 L15.5303301,10.5303301 L11.5303301,14.5303301 C11.2640635,14.7965966 10.8473998,14.8208027 10.5537883,14.6029482 L10.4696699,14.5303301 L8.46966991,12.5303301 C8.1767767,12.2374369 8.1767767,11.7625631 8.46966991,11.4696699 C8.73593648,11.2034034 9.15260016,11.1791973 9.44621165,11.3970518 L9.53033009,11.4696699 L11,12.939 L14.4696699,9.46966991 C14.7625631,9.1767767 15.2374369,9.1767767 15.5303301,9.46966991 Z"></path>
                        </g>
                    </g>
                </g>
            </g>
        </g>
    </g>
</svg>