<?xml version="1.0" encoding="UTF-8"?>
<svg width="24px" height="24px" viewBox="0 0 24 24" version="1.1" xmlns="http://www.w3.org/2000/svg" xmlns:xlink="http://www.w3.org/1999/xlink">
    <title>ic_star</title>
    <g id="ic_star" stroke="none" stroke-width="1" fill="none" fill-rule="evenodd">
        <path d="M7.99434466,7.39671527 L0.718690342,8.50415603 L0.601712732,8.53048401 C0.00147654866,8.71160442 -0.21421158,9.52388738 0.254052432,10.0020912 L5.51763366,15.3777207 L4.27569847,22.971381 L4.26370224,23.0892508 C4.23777284,23.7468529 4.91115332,24.2170799 5.49195192,23.8971633 L12,20.3119867 L18.5080481,23.8971633 L18.6113418,23.9455397 C19.2002923,24.1745839 19.8352428,23.6489415 19.7243015,22.971381 L18.4812487,15.3777207 L23.7459476,10.0020912 L23.8258051,9.90874862 C24.2097446,9.39255541 23.9284448,8.60261064 23.2813097,8.50415603 L16.0045377,7.39671527 L12.7516793,0.48953817 C12.4442039,-0.16317939 11.5557961,-0.16317939 11.2483207,0.48953817 L7.99434466,7.39671527 Z" id="Path" fill="#000000"></path>
    </g>
</svg>