<?xml version="1.0" encoding="UTF-8"?>
<svg width="24px" height="24px" viewBox="0 0 24 24" version="1.1" xmlns="http://www.w3.org/2000/svg" xmlns:xlink="http://www.w3.org/1999/xlink">
    <title>Icons/ic_ Copy 4</title>
    <g id="Icons/ic_-Copy-4" stroke="none" stroke-width="1" fill="none" fill-rule="evenodd">
        <path d="M10,2.25 C14.2802068,2.25 17.75,5.71979319 17.75,10 C17.75,11.8699165 17.0877553,13.5851575 15.9850102,14.9239785 L21.5303301,20.4696699 C21.8232233,20.7625631 21.8232233,21.2374369 21.5303301,21.5303301 C21.2640635,21.7965966 20.8473998,21.8208027 20.5537883,21.6029482 L20.4696699,21.5303301 L14.9239785,15.9850102 C13.5851575,17.0877553 11.8699165,17.75 10,17.75 C5.71979319,17.75 2.25,14.2802068 2.25,10 C2.25,5.71979319 5.71979319,2.25 10,2.25 Z M10,3.75 C6.54822031,3.75 3.75,6.54822031 3.75,10 C3.75,13.4517797 6.54822031,16.25 10,16.25 C13.4517797,16.25 16.25,13.4517797 16.25,10 C16.25,6.54822031 13.4517797,3.75 10,3.75 Z" id="Combined-Shape" fill="#000000"></path>
    </g>
</svg>