<?xml version="1.0" encoding="UTF-8"?>
<svg width="64px" height="64px" viewBox="0 0 64 64" version="1.1" xmlns="http://www.w3.org/2000/svg" xmlns:xlink="http://www.w3.org/1999/xlink">
    <title>ic_tick 2</title>
    <g id="Customer-Web" stroke="none" stroke-width="1" fill="none" fill-rule="evenodd">
        <g id="ic_tick" fill="#FF5851">
            <circle id="Oval" opacity="0.100000001" cx="32" cy="32" r="32"></circle>
            <g id="Icons/ic_" transform="translate(14.000000, 14.000000)">
                <path d="M18,3.375 C26.0771645,3.375 32.625,9.92283553 32.625,18 C32.625,26.0771645 26.0771645,32.625 18,32.625 C9.92283553,32.625 3.375,26.0771645 3.375,18 C3.375,9.92283553 9.92283553,3.375 18,3.375 Z M18,5.625 C11.1654762,5.625 5.625,11.1654762 5.625,18 C5.625,24.8345238 11.1654762,30.375 18,30.375 C24.8345238,30.375 30.375,24.8345238 30.375,18 C30.375,11.1654762 24.8345238,5.625 18,5.625 Z M23.2954951,14.2045049 C23.694895,14.6039047 23.731204,15.2289002 23.4044224,15.6693175 L23.2954951,15.7954951 L17.2954951,21.7954951 C16.8960953,22.194895 16.2710998,22.231204 15.8306825,21.9044224 L15.7045049,21.7954951 L12.7045049,18.7954951 C12.265165,18.3561553 12.265165,17.6438447 12.7045049,17.2045049 C13.1039047,16.805105 13.7289002,16.768796 14.1693175,17.0955776 L14.2954951,17.2045049 L16.5,19.4085 L21.7045049,14.2045049 C22.1438447,13.765165 22.8561553,13.765165 23.2954951,14.2045049 Z" id="Combined-Shape"></path>
            </g>
        </g>
    </g>
</svg>