<svg id="Capa_1" enable-background="new 0 0 512.15 512.15" height="512" viewBox="0 0 512.15 512.15" width="512" xmlns="http://www.w3.org/2000/svg"><path d="m437.096 75.004c-48.352-48.367-112.64-75.004-181.021-75.004s-132.669 26.637-181.021 75.004c-48.351 48.366-74.979 112.671-74.979 181.071s26.628 132.705 74.979 181.071c48.352 48.367 112.64 75.004 181.021 75.004s132.669-26.637 181.021-75.004c48.351-48.366 74.979-112.671 74.979-181.071s-26.628-132.705-74.979-181.071zm-181.021 407.146c-16.854 0-35.42-22.752-49.665-60.861-8.849-23.674-15.548-51.652-19.848-82.228h139.025c-4.299 30.576-10.999 58.553-19.848 82.227-14.243 38.11-32.81 60.862-49.664 60.862zm-72.884-173.088c-1.465-17.159-2.223-34.906-2.223-52.987 0-23.808 1.308-47.039 3.827-69.106h142.56c2.519 22.068 3.827 45.299 3.827 69.106 0 18.081-.757 35.827-2.223 52.987zm-153.116-52.987c0-23.813 3.671-47.059 10.716-69.106h113.839c-2.41 22.206-3.662 45.413-3.662 69.106 0 18.019.726 35.756 2.131 52.987h-116.801c-4.1-17.153-6.223-34.906-6.223-52.987zm226-226.075c16.854 0 35.421 22.751 49.665 60.861 7.268 19.447 13.087 41.799 17.317 66.107h-133.964c4.23-24.309 10.049-46.661 17.318-66.107 14.244-38.11 32.809-60.861 49.664-60.861zm101.445 156.968h113.838c7.046 22.048 10.717 45.293 10.717 69.106 0 18.082-2.124 35.834-6.223 52.987h-116.801c1.405-17.231 2.131-34.968 2.131-52.987 0-23.692-1.252-46.9-3.662-69.106zm101.793-30h-105.855c-4.611-28.167-11.211-54.123-19.617-76.611-6.367-17.034-13.63-31.534-21.599-43.35 38.876 9.902 74.529 30.089 103.638 59.207 18.002 18.008 32.577 38.525 43.433 60.754zm-363.043-60.754c29.108-29.117 64.761-49.304 103.638-59.207-7.969 11.816-15.232 26.316-21.599 43.35-8.406 22.488-15.006 48.444-19.617 76.611h-105.855c10.856-22.229 25.431-42.746 43.433-60.754zm-50.534 242.848h110.566c4.579 34.404 12.021 66.012 22.008 92.731 6.367 17.034 13.63 31.534 21.599 43.35-38.876-9.902-74.53-30.089-103.638-59.207-22.279-22.286-39.32-48.41-50.535-76.874zm370.144 76.874c-29.108 29.118-64.761 49.305-103.638 59.207 7.969-11.816 15.232-26.316 21.599-43.35 9.987-26.719 17.429-58.327 22.008-92.731h110.565c-11.215 28.464-28.256 54.588-50.534 76.874z"/></svg>