<?xml version="1.0" encoding="utf-8"?>
<!-- Generator: Adobe Illustrator 17.1.0, SVG Export Plug-In . SVG Version: 6.00 Build 0)  -->
<!DOCTYPE svg PUBLIC "-//W3C//DTD SVG 1.1//EN" "http://www.w3.org/Graphics/SVG/1.1/DTD/svg11.dtd">
<svg version="1.1" id="Layer_1" xmlns="http://www.w3.org/2000/svg" xmlns:xlink="http://www.w3.org/1999/xlink" x="0px" y="0px"
	 viewBox="0 0 1080 1080" enable-background="new 0 0 1080 1080" xml:space="preserve">
<g id="Safe">
	<path fill="#888888" d="M536.2,886.3c170.9,0,309.9-182.6,309.9-406.8V247.1c0-8.7-5.8-16.5-14.3-18.6l-290.6-77.5
		c-3.4-1-6.8-1-9.9,0l-290.6,77.5c-8.5,2.2-14.3,9.9-14.3,18.6v232.4C226.3,703.7,365.3,886.3,536.2,886.3z M265,262.1l271.2-72.4
		l271.2,72.4v217.4c0,202.9-121.6,368-271.2,368S265,682.4,265,479.5V262.1z"/>
	<path fill="#888888" d="M458.7,595.7v58.1c0,21.3,17.4,38.7,38.7,38.7h77.5c21.3,0,38.7-17.4,38.7-38.7v-58.1h58.1
		c21.3,0,38.7-17.4,38.7-38.7v-77.5c0-21.3-17.4-38.7-38.7-38.7h-58.1v-58.1c0-21.3-17.4-38.7-38.7-38.7h-77.5
		c-21.3,0-38.7,17.4-38.7,38.7v58.1h-58.1c-21.3,0-38.7,17.4-38.7,38.7V557c0,21.3,17.4,38.7,38.7,38.7H458.7z M400.6,479.5h58.1
		c21.3,0,38.7-17.4,38.7-38.7v-58.1h77.5v58.1c0,21.3,17.4,38.7,38.7,38.7h58.1V557h-58.1c-21.3,0-38.7,17.4-38.7,38.7v58.1h-77.5
		v-58.1c0-21.3-17.4-38.7-38.7-38.7h-58.1V479.5z"/>
	<path fill="#888888" d="M846.1,172h38.7v-38.7h38.7V94.5h-38.7V55.8h-38.7v38.7h-38.7v38.7h38.7V172z"/>
	<path fill="#888888" d="M1071.4,305.2h-38.7v-38.7h-38.7v38.7h-38.7v38.7h38.7v38.7h38.7v-38.7h38.7V305.2z"/>
	<path fill="#888888" d="M662.1,917.8v38.7h-38.7v38.7h38.7v38.7h38.7v-38.7h38.7v-38.7h-38.7v-38.7H662.1z"/>
	<path fill="#888888" d="M1001.1,634.5h-38.7v38.7h-38.7V712h38.7v38.7h38.7V712h38.7v-38.7h-38.7V634.5z"/>
	<path fill="#888888" d="M236,172h38.7v-38.7h38.7V94.5h-38.7V55.8H236v38.7h-38.7v38.7H236V172z"/>
	<path fill="#888888" d="M39.7,382.7h38.7v-38.7h38.7v-38.7H78.5v-38.7H39.7v38.7H1v38.7h38.7V382.7z"/>
	<path fill="#888888" d="M344.9,917.8v38.7h-38.7v38.7h38.7v38.7h38.7v-38.7h38.7v-38.7h-38.7v-38.7H344.9z"/>
	<path fill="#888888" d="M110,750.7V712h38.7v-38.7H110v-38.7H71.3v38.7H32.6V712h38.7v38.7H110z"/>
</g>
</svg>
