<svg id="Capa_1" fill="#888888" enable-background="new 0 0 512.039 512.039" height="512" viewBox="0 0 512.039 512.039" width="512" xmlns="http://www.w3.org/2000/svg"><g><path d="m181.001 120.946c0-16.542-13.458-30-30-30s-30 13.458-30 30 13.458 30 30 30 30-13.458 30-30zm-45 0c0-8.271 6.729-15 15-15s15 6.729 15 15-6.729 15-15 15-15-6.729-15-15z"/><path d="m30 170.569h15v15h-15z"/><path d="m30 200.569h15v45h-15z"/><path d="m504.183 210.181c-14.164-30-44.682-47.207-83.728-47.207-34.15 0-63.628 20.388-76.904 49.629-8.12-17.885-22.307-32.446-39.911-41.068v-19.275l-133.911-122.24h-35.817l-133.912 122.241v254.759h15v-248.142l124.728-113.858h24.184l124.728 113.858v7.009c-7.015-1.895-14.387-2.912-21.993-2.912-39.046 0-69.564 17.206-83.728 47.207-15.542 32.919-7.679 74.656 20.522 108.923l.211.257 30.27 30.776 10.694-10.519-29.801-30.299c-24.309-29.688-31.334-65.194-18.332-92.734 11.585-24.538 37.159-38.611 70.164-38.611 38.27 0 69.404 31.134 69.404 69.404h15c0-38.27 31.134-69.404 69.404-69.404 33.005 0 58.579 14.073 70.164 38.61 13.002 27.54 5.977 63.045-18.332 92.734l-128.736 130.889-88.417-89.896-10.694 10.519 44.201 44.94v50.643l-10.606 10.606h-252.429l-10.606-10.607v-34.393h-15v40.605l19.394 19.394h264.853l19.394-19.394v-41.605l39.911 40.578 139.666-142.001.444-.494c28.199-34.266 36.063-76.003 20.521-108.922z"/><path d="m437.247 297.598h15.264v15h-15.264z" transform="matrix(.701 -.713 .713 .701 -84.593 408.354)"/><path d="m476.018 220.9c-9.485-18.008-29.218-27.926-55.563-27.926v15c20.805 0 35.429 6.887 42.292 19.917 7.917 15.03 4.48 36.547-8.969 56.155l12.369 8.484c16.607-24.212 20.39-51.659 9.871-71.63z"/><path d="m228.64 437.02h45v15h-45z"/><path d="m198.64 437.02h15v15h-15z"/></g></svg>