<?xml version="1.0" encoding="UTF-8"?>
<svg width="24px" height="24px" viewBox="0 0 24 24" version="1.1" xmlns="http://www.w3.org/2000/svg" xmlns:xlink="http://www.w3.org/1999/xlink">
    <title>ic_checked</title>
    <g id="ic_checked" stroke="none" stroke-width="1" fill="none" fill-rule="evenodd">
        <path d="M18,3.25 C19.5187831,3.25 20.75,4.48121694 20.75,6 L20.75,6 L20.75,18 C20.75,19.5187831 19.5187831,20.75 18,20.75 L18,20.75 L6,20.75 C4.48121694,20.75 3.25,19.5187831 3.25,18 L3.25,18 L3.25,6 C3.25,4.48121694 4.48121694,3.25 6,3.25 L6,3.25 Z M18,4.75 L6,4.75 C5.30964406,4.75 4.75,5.30964406 4.75,6 L4.75,6 L4.75,18 C4.75,18.6903559 5.30964406,19.25 6,19.25 L6,19.25 L18,19.25 C18.6903559,19.25 19.25,18.6903559 19.25,18 L19.25,18 L19.25,6 C19.25,5.30964406 18.6903559,4.75 18,4.75 L18,4.75 Z M15.5303301,9.46966991 C15.7965966,9.73593648 15.8208027,10.1526002 15.6029482,10.4462117 L15.5303301,10.5303301 L11.5303301,14.5303301 C11.2640635,14.7965966 10.8473998,14.8208027 10.5537883,14.6029482 L10.4696699,14.5303301 L8.46966991,12.5303301 C8.1767767,12.2374369 8.1767767,11.7625631 8.46966991,11.4696699 C8.73593648,11.2034034 9.15260016,11.1791973 9.44621165,11.3970518 L9.53033009,11.4696699 L11,12.939 L14.4696699,9.46966991 C14.7625631,9.1767767 15.2374369,9.1767767 15.5303301,9.46966991 Z" id="Combined-Shape" fill="#000000"></path>
    </g>
</svg>