<?xml version="1.0" encoding="UTF-8"?>
<svg width="24px" height="24px" viewBox="0 0 24 24" version="1.1" xmlns="http://www.w3.org/2000/svg" xmlns:xlink="http://www.w3.org/1999/xlink">
    <title>ic_cusine</title>
    <g id="ic_cusine" stroke="none" stroke-width="1" fill="none" fill-rule="evenodd">
        <path d="M12,2.25 C17.3847763,2.25 21.75,6.61522369 21.75,12 C21.75,17.3847763 17.3847763,21.75 12,21.75 C6.61522369,21.75 2.25,17.3847763 2.25,12 C2.25,6.61522369 6.61522369,2.25 12,2.25 Z M12,3.75 C7.44365081,3.75 3.75,7.44365081 3.75,12 C3.75,16.5563492 7.44365081,20.25 12,20.25 C16.5563492,20.25 20.25,16.5563492 20.25,12 C20.25,7.44365081 16.5563492,3.75 12,3.75 Z M15.4497641,8.62542469 C15.6566363,8.98427947 15.5334301,9.44289183 15.1745753,9.64976406 C14.8456251,9.83939694 14.4328508,9.75167225 14.2069952,9.45932501 L14.1502359,9.37457531 C13.9425988,9.01439369 13.5714172,8.78369893 13.1442974,8.75280244 L13,8.75 L11,8.75 C10.3096441,8.75 9.75,9.30964406 9.75,10 C9.75,10.6472087 10.2418747,11.1795339 10.8721948,11.2435464 L11,11.25 L13,11.25 C14.5187831,11.25 15.75,12.4812169 15.75,14 C15.75,15.4625318 14.6082954,16.6584043 13.1675223,16.7449812 L13,16.75 L12.75,16.749 L12.75,18 C12.75,18.4142136 12.4142136,18.75 12,18.75 C11.6203042,18.75 11.306509,18.4678461 11.2568466,18.1017706 L11.25,18 L11.25,16.749 L10.8356361,16.7494415 C9.89231172,16.7163028 9.02607103,16.1999915 8.55023594,15.3745753 C8.34336371,15.0157205 8.46656991,14.5571082 8.82542469,14.3502359 C9.15437491,14.1606031 9.5671492,14.2483278 9.79300483,14.540675 L9.84976406,14.6254247 C10.0574012,14.9856063 10.4285828,15.2163011 10.8557026,15.2471976 L11,15.25 L13,15.25 C13.6903559,15.25 14.25,14.6903559 14.25,14 C14.25,13.3527913 13.7581253,12.8204661 13.1278052,12.7564536 L13,12.75 L11,12.75 C9.48121694,12.75 8.25,11.5187831 8.25,10 C8.25,8.48121694 9.48121694,7.25 11,7.25 L11.25,7.249 L11.25,6 C11.25,5.58578644 11.5857864,5.25 12,5.25 C12.3796958,5.25 12.693491,5.53215388 12.7431534,5.89822944 L12.75,6 L12.75,7.25 L13.1643639,7.25055854 C14.1076883,7.28369717 14.973929,7.80000846 15.4497641,8.62542469 Z" id="Combined-Shape" fill="#FF5851"></path>
    </g>
</svg>