<?xml version="1.0" encoding="UTF-8"?>
<svg width="24px" height="24px" viewBox="0 0 24 24" version="1.1" xmlns="http://www.w3.org/2000/svg" xmlns:xlink="http://www.w3.org/1999/xlink">
    <title>ic_instagram</title>
    <g id="ic_instagram" stroke="none" stroke-width="1" fill="none" fill-rule="evenodd">
        <path d="M16.9544554,2 C19.7108911,2 21.960396,4.24950495 21.9762376,7.00594059 L21.9762376,7.00594059 L21.9762376,16.9544554 C21.9762376,19.7108911 19.7267327,21.960396 16.970297,21.960396 L16.970297,21.960396 L7.00594059,21.960396 C4.24950495,21.960396 2,19.7108911 2,16.970297 L2,16.970297 L2,7.00594059 C2,4.24950495 4.24950495,2 7.00594059,2 L7.00594059,2 Z M15.7980198,5.8019802 L8.16237624,5.8019802 C6.83168317,5.8019802 5.8019802,6.83168317 5.8019802,8.16237624 L5.8019802,8.16237624 L5.8019802,15.7980198 C5.8019802,17.1287129 6.83168317,18.1584158 8.16237624,18.1584158 L8.16237624,18.1584158 L15.7980198,18.1584158 C17.1287129,18.1584158 18.1584158,17.1287129 18.1584158,15.7980198 L18.1584158,15.7980198 L18.1584158,8.16237624 C18.1584158,6.83168317 17.1287129,5.8019802 15.7980198,5.8019802 L15.7980198,5.8019802 Z M8.82772277,10.7128713 C8.66930693,11.029703 8.57425743,11.5207921 8.57425743,11.980198 C8.57425743,13.8653465 10.0950495,15.3861386 11.980198,15.3861386 C13.8653465,15.3861386 15.3861386,13.849505 15.3861386,11.980198 C15.3861386,11.5366337 15.2910891,11.029703 15.1326733,10.7128713 L15.1326733,10.7128713 L17.049505,10.7128713 L17.049505,15.7980198 C17.049505,16.4633663 16.4633663,17.049505 15.7980198,17.049505 L15.7980198,17.049505 L8.16237624,17.049505 C7.4970297,17.049505 6.91089109,16.4633663 6.91089109,15.7980198 L6.91089109,15.7980198 L6.91089109,10.7128713 Z M11.980198,9.77821782 C12.7089109,9.77821782 13.3584158,10.1425743 13.7544554,10.6970297 C14.0079208,11.0613861 14.1663366,11.5049505 14.1663366,11.980198 C14.1663366,13.1841584 13.1841584,14.1663366 11.980198,14.1663366 C10.7762376,14.1663366 9.79405941,13.1841584 9.79405941,11.980198 C9.79405941,11.5049505 9.95247525,11.0613861 10.2059406,10.6970297 C10.6019802,10.1425743 11.2514851,9.77821782 11.980198,9.77821782 Z M16.7326733,7.18019802 L16.7326733,9.3029703 L14.6415842,9.3029703 L14.6415842,7.1960396 L16.4792079,7.1960396 L16.7326733,7.18019802 Z" id="Combined-Shape" fill="#000000"></path>
    </g>
</svg>