<?xml version="1.0" encoding="UTF-8"?>
<svg width="24px" height="24px" viewBox="0 0 24 24" version="1.1" xmlns="http://www.w3.org/2000/svg" xmlns:xlink="http://www.w3.org/1999/xlink">
    <title>ic_payment</title>
    <g id="ic_payment" stroke="none" stroke-width="1" fill="none" fill-rule="evenodd">
        <path d="M18,4.25 C20.0710678,4.25 21.75,5.92893219 21.75,8 L21.75,8 L21.75,16 C21.75,18.0710678 20.0710678,19.75 18,19.75 L18,19.75 L6,19.75 C3.92893219,19.75 2.25,18.0710678 2.25,16 L2.25,16 L2.25,8 C2.25,5.92893219 3.92893219,4.25 6,4.25 L6,4.25 Z M20.25,10.75 L3.75,10.75 L3.75,16 C3.75,17.190864 4.67516159,18.1656449 5.84595119,18.2448092 L6,18.25 L18,18.25 C19.2426407,18.25 20.25,17.2426407 20.25,16 L20.25,16 L20.25,10.75 Z M7.01,14.25 C7.42421356,14.25 7.76,14.5857864 7.76,15 C7.76,15.3796958 7.47784612,15.693491 7.11177056,15.7431534 L7,15.75 C6.58578644,15.75 6.25,15.4142136 6.25,15 C6.25,14.6203042 6.53215388,14.306509 6.89822944,14.2568466 L7.01,14.25 Z M13,14.25 C13.4142136,14.25 13.75,14.5857864 13.75,15 C13.75,15.3796958 13.4678461,15.693491 13.1017706,15.7431534 L13,15.75 L11,15.75 C10.5857864,15.75 10.25,15.4142136 10.25,15 C10.25,14.6203042 10.5321539,14.306509 10.8982294,14.2568466 L11,14.25 L13,14.25 Z M18,5.75 L6,5.75 C4.75735931,5.75 3.75,6.75735931 3.75,8 L3.75,8 L3.75,9.25 L20.25,9.25 L20.25,8 C20.25,6.80913601 19.3248384,5.83435508 18.1540488,5.75519081 L18,5.75 Z" id="Combined-Shape" fill="#FF5851"></path>
    </g>
</svg>