<?xml version="1.0" encoding="UTF-8"?>
<svg width="24px" height="24px" viewBox="0 0 24 24" version="1.1" xmlns="http://www.w3.org/2000/svg" xmlns:xlink="http://www.w3.org/1999/xlink">
    <title>ic_peoples</title>
    <g id="ic_peoples" stroke="none" stroke-width="1" fill="none" fill-rule="evenodd">
        <path d="M11,14.25 C13.5504817,14.25 15.6314697,16.2601413 15.7451121,18.782572 L15.75,19 L15.75,21 C15.75,21.4142136 15.4142136,21.75 15,21.75 C14.6203042,21.75 14.306509,21.4678461 14.2568466,21.1017706 L14.25,21 L14.25,19 C14.25,17.2669685 12.8935452,15.8507541 11.1844239,15.7551448 L11,15.75 L7,15.75 C5.26696854,15.75 3.85075407,17.1064548 3.75514479,18.8155761 L3.75,19 L3.75,21 C3.75,21.4142136 3.41421356,21.75 3,21.75 C2.62030423,21.75 2.30650904,21.4678461 2.25684662,21.1017706 L2.25,21 L2.25,19 C2.25,16.4495183 4.26014129,14.3685303 6.782572,14.2548879 L7,14.25 L11,14.25 Z M18.1874876,14.4238124 C20.2029175,14.9441575 21.6359729,16.7119997 21.7435767,18.7775906 L21.75,19 L21.75,21 C21.75,21.4142136 21.4142136,21.75 21,21.75 C20.6203042,21.75 20.306509,21.4678461 20.2568466,21.1017706 L20.25,21 L20.2500124,19.0043126 C20.2415306,17.5292764 19.2407399,16.2449283 17.8125124,15.8761876 C17.4114501,15.772641 17.1702659,15.3635747 17.2738124,14.9625124 C17.377359,14.5614501 17.7864253,14.3202659 18.1874876,14.4238124 Z M9,2.25 C11.6233526,2.25 13.75,4.37664744 13.75,7 C13.75,9.62335256 11.6233526,11.75 9,11.75 C6.37664744,11.75 4.25,9.62335256 4.25,7 C4.25,4.37664744 6.37664744,2.25 9,2.25 Z M16.1860294,2.4034375 C18.2878032,2.94157662 19.7578433,4.83542699 19.7578433,7.005 C19.7578433,9.17457301 18.2878032,11.0684234 16.1860294,11.6065625 C15.78476,11.7093037 15.3761787,11.4672988 15.2734375,11.0660294 C15.1706963,10.66476 15.4127012,10.2561787 15.8139706,10.1534375 C17.2520264,9.78523705 18.2578433,8.48944469 18.2578433,7.005 C18.2578433,5.52055531 17.2520264,4.22476295 15.8139706,3.8565625 C15.4127012,3.75382131 15.1706963,3.34524 15.2734375,2.94397061 C15.3761787,2.54270122 15.78476,2.30069631 16.1860294,2.4034375 Z M9,3.75 C7.20507456,3.75 5.75,5.20507456 5.75,7 C5.75,8.79492544 7.20507456,10.25 9,10.25 C10.7949254,10.25 12.25,8.79492544 12.25,7 C12.25,5.20507456 10.7949254,3.75 9,3.75 Z" id="Combined-Shape" fill="#000000"></path>
    </g>
</svg>