<svg  version="1.2" xmlns="http://www.w3.org/2000/svg"  viewBox="0 0 46.763 30"> 
<path d="M526.528,389.558a16.147,16.147,0,0,1-.234-4.417,18.117,18.117,0,0,1,2.44-7.856,21.8,21.8,0,0,1,2.219-3.162,18.278,18.278,0,0,1,11.331-6.11l.093-.012.455,1.352-.106.036a22.577,22.577,0,0,0-5.433,2.57,13.535,13.535,0,0,0-3.55,3.7,20.222,20.222,0,0,0-1.983,3.686A9.973,9.973,0,1,1,536.67,398a10.8,10.8,0,0,1-2.993-.454,10.147,10.147,0,0,1-4.4-2.81,11.52,11.52,0,0,1-1.82-2.656A10.951,10.951,0,0,1,526.528,389.558Z" transform="translate(-526.242 -368)" fill="#ececec"></path> <path d="M294.528,389.558a16.146,16.146,0,0,1-.234-4.417,18.113,18.113,0,0,1,2.44-7.856,21.8,21.8,0,0,1,2.219-3.162,18.278,18.278,0,0,1,11.331-6.11l.093-.012.456,1.352-.107.036a22.578,22.578,0,0,0-5.433,2.57,13.534,13.534,0,0,0-3.55,3.7,20.226,20.226,0,0,0-1.983,3.686A9.973,9.973,0,1,1,304.67,398a10.8,10.8,0,0,1-2.993-.454,10.148,10.148,0,0,1-4.4-2.81,11.52,11.52,0,0,1-1.82-2.656A10.948,10.948,0,0,1,294.528,389.558Z" transform="translate(-267.878 -368)" fill="#ececec"></path>
 </svg>