<?xml version="1.0" encoding="UTF-8"?>
<svg width="33px" height="31px" viewBox="0 0 33 31" version="1.1" xmlns="http://www.w3.org/2000/svg" xmlns:xlink="http://www.w3.org/1999/xlink">
    <title>ic_star_grey</title>
    <g id="Customer-Web" stroke="none" stroke-width="1" fill="none" fill-rule="evenodd">
        <g id="ic_star" transform="translate(-1.000000, -3.000000)" fill="#D6D1CE">
            <path d="M12.2292311,12.4755 L2.46487336,13.8911318 L2.30778675,13.9248366 C1.50175394,14.1567951 1.21229767,15.1981499 1.84152991,15.8106446 L8.91573106,22.698 L7.24892676,32.4242948 L7.23282659,32.5752909 C7.19802668,33.4177065 8.10177229,34.0200869 8.88126354,33.6102604 L17.6142311,29.0175 L26.3282668,33.6097699 L26.4669102,33.6718992 C27.2574602,33.9661519 28.1105076,33.292731 27.9615354,32.4242948 L26.2932311,22.698 L33.3689322,15.8106446 L33.4762455,15.6910784 C33.9922125,15.0298132 33.6146229,14.0170788 32.7455888,13.8911318 L22.9797311,12.4755 L18.6140617,3.62711876 C18.2013982,2.79096041 17.0090639,2.79096041 16.5964004,3.62711876 L12.2292311,12.4755 Z" id="Path"></path>
        </g>
    </g>
</svg>