<?xml version="1.0" encoding="UTF-8"?>
<svg width="24px" height="24px" viewBox="0 0 24 24" version="1.1" xmlns="http://www.w3.org/2000/svg" xmlns:xlink="http://www.w3.org/1999/xlink">
    <title>ic_twitter</title>
    <g id="ic_twitter" stroke="none" stroke-width="1" fill="none" fill-rule="evenodd">
        <path d="M16.9544554,2 L7.00594059,2 C4.24950495,2 2,4.24950495 2,7.00594059 L2,16.970297 C2,19.7108911 4.24950495,21.960396 7.00594059,21.960396 L16.970297,21.960396 C19.7267327,21.960396 21.9762376,19.7108911 21.9762376,16.9544554 L21.9762376,7.00594059 C21.960396,4.24950495 19.7108911,2 16.9544554,2 Z M16.9386139,9.47722772 C16.9386139,9.58811881 16.9386139,9.6990099 16.9386139,9.80990099 C16.9386139,13.1366337 14.3722772,16.970297 9.66732673,16.970297 C8.22574257,16.970297 6.87920792,16.5584158 5.75445545,15.8455446 C5.96039604,15.8613861 6.15049505,15.8772277 6.35643564,15.8772277 C7.56039604,15.8772277 8.65346535,15.4811881 9.52475248,14.8 C8.4,14.7841584 7.46534653,14.0554455 7.13267327,13.0574257 C7.29108911,13.0891089 7.44950495,13.1049505 7.60792079,13.1049505 C7.84554455,13.1049505 8.08316832,13.0732673 8.28910891,13.009901 C7.14851485,12.7722772 6.27722772,11.7584158 6.27722772,10.5386139 L6.27722772,10.5069307 C6.59405941,10.6970297 7.00594059,10.8079208 7.41782178,10.8237624 C6.73663366,10.380198 6.27722772,9.6039604 6.27722772,8.73267327 C6.27722772,8.27326733 6.4039604,7.84554455 6.62574257,7.46534653 C7.89306931,8.98613861 9.76237624,9.98415842 11.8851485,10.0950495 C11.8376238,9.9049505 11.8217822,9.71485149 11.8217822,9.52475248 C11.8217822,8.13069307 12.9623762,7.00594059 14.3722772,7.00594059 C15.1009901,7.00594059 15.7663366,7.30693069 16.2415842,7.7980198 C16.8277228,7.68712871 17.3663366,7.48118812 17.8574257,7.18019802 C17.6673267,7.76633663 17.2554455,8.25742574 16.7326733,8.57425743 C17.2554455,8.51089109 17.7465347,8.38415842 18.2059406,8.17821782 C17.8574257,8.68514851 17.429703,9.12871287 16.9386139,9.47722772 Z" id="Shape" fill="#000000"></path>
    </g>
</svg>