<?xml version="1.0" encoding="UTF-8"?>
<svg width="24px" height="24px" viewBox="0 0 24 24" version="1.1" xmlns="http://www.w3.org/2000/svg" xmlns:xlink="http://www.w3.org/1999/xlink">
    <title>ic_add_grey</title>
    <g id="ic_add_grey" stroke="none" stroke-width="1" fill="none" fill-rule="evenodd">
        <path d="M12,4.25 C12.3796958,4.25 12.693491,4.53215388 12.7431534,4.89822944 L12.75,5 L12.75,11.25 L19,11.25 C19.4142136,11.25 19.75,11.5857864 19.75,12 C19.75,12.3796958 19.4678461,12.693491 19.1017706,12.7431534 L19,12.75 L12.75,12.75 L12.75,19 C12.75,19.4142136 12.4142136,19.75 12,19.75 C11.6203042,19.75 11.306509,19.4678461 11.2568466,19.1017706 L11.25,19 L11.25,12.75 L5,12.75 C4.58578644,12.75 4.25,12.4142136 4.25,12 C4.25,11.6203042 4.53215388,11.306509 4.89822944,11.2568466 L5,11.25 L11.25,11.25 L11.25,5 C11.25,4.58578644 11.5857864,4.25 12,4.25 Z" id="Combined-Shape" fill="#646368"></path>
    </g>
</svg>