<?xml version="1.0" encoding="UTF-8"?>
<svg width="24px" height="24px" viewBox="0 0 24 24" version="1.1" xmlns="http://www.w3.org/2000/svg" xmlns:xlink="http://www.w3.org/1999/xlink">
    <title>ic_alert</title>
    <g id="ic_alert" stroke="none" stroke-width="1" fill="none" fill-rule="evenodd">
        <path d="M11.9934584,2.25001731 L12.1110414,2.25817677 L12.2139714,2.28098301 L12.3136939,2.31853619 L12.4085713,2.37093647 L12.4821876,2.42541618 L12.492,2.435 C14.5992138,4.29820184 17.3173295,5.30225472 20.1155588,5.26135289 L20.4657159,5.25078401 C20.810847,5.23499084 21.1221142,5.45700934 21.2195539,5.78847635 C22.1932764,9.10085217 21.7820624,12.6665103 20.0799212,15.6702887 C18.3777801,18.6740671 15.5302448,20.8591432 12.1883039,21.7259763 C12.0648112,21.7580079 11.9351888,21.7580079 11.8116961,21.7259763 C8.46975516,20.8591432 5.62221987,18.6740671 3.92007875,15.6702887 C2.21793764,12.6665103 1.80672358,9.10085217 2.78044615,5.78847635 C2.87788585,5.45700934 3.189153,5.23499084 3.53428406,5.25078401 C6.33825929,5.37909368 9.08444412,4.4545699 11.2370842,2.66630243 L11.5178124,2.42541618 L11.6055968,2.36184412 L11.6999996,2.31241804 L11.7860286,2.28098301 L11.9021096,2.25640448 L11.9934584,2.25001731 Z M12,3.978 L11.9332624,4.03223391 C9.72674775,5.76871853 7.00754277,6.72843793 4.19987795,6.76166371 L4.073,6.761 L4.04293915,6.88962911 C3.44878072,9.50173096 3.8059006,12.2454228 5.05687681,14.622796 L5.22511203,14.9307698 C6.67137572,17.4829999 9.05480531,19.3653645 11.862487,20.1842758 L12,20.222 L12.137513,20.1842758 C14.8372069,19.3968611 17.1446559,17.626224 18.6038816,15.2222628 L18.774888,14.9307698 C20.1612472,12.4842535 20.5770523,9.6153006 19.9570608,6.88962911 L19.926,6.761 L19.800122,6.76166371 C16.9924572,6.72843793 14.2732523,5.76871853 12.0667376,4.03223391 L12,3.978 Z M15.5303301,9.46966991 C15.7965966,9.73593648 15.8208027,10.1526002 15.6029482,10.4462117 L15.5303301,10.5303301 L11.5303301,14.5303301 C11.2640635,14.7965966 10.8473998,14.8208027 10.5537883,14.6029482 L10.4696699,14.5303301 L8.46966991,12.5303301 C8.1767767,12.2374369 8.1767767,11.7625631 8.46966991,11.4696699 C8.73593648,11.2034034 9.15260016,11.1791973 9.44621165,11.3970518 L9.53033009,11.4696699 L11,12.939 L14.4696699,9.46966991 C14.7625631,9.1767767 15.2374369,9.1767767 15.5303301,9.46966991 Z" id="Combined-Shape" fill="#5DB90D"></path>
    </g>
</svg>