<svg width="50" height="50" viewBox="0 0 50 50" fill="none" xmlns="http://www.w3.org/2000/svg">
<g clip-path="url(#clip0_306_7290)">
<path d="M18.75 8.33331H31.25C32.3551 8.33331 33.4149 8.7723 34.1963 9.5537C34.9777 10.3351 35.4167 11.3949 35.4167 12.5V41.6666L25 35.4166L14.5833 41.6666V12.5C14.5833 11.3949 15.0223 10.3351 15.8037 9.5537C16.5851 8.7723 17.6449 8.33331 18.75 8.33331Z" fill="black"/>
<path fill-rule="evenodd" clip-rule="evenodd" d="M18.75 9.89581C18.0593 9.89581 17.3969 10.1702 16.9086 10.6586C16.4202 11.1469 16.1458 11.8093 16.1458 12.5V38.907L24.1961 34.0768C24.6909 33.7799 25.3091 33.7799 25.8039 34.0768L33.8542 38.907V12.5C33.8542 11.8093 33.5798 11.1469 33.0914 10.6586C32.603 10.1702 31.9407 9.89581 31.25 9.89581H18.75ZM14.6989 8.44885C15.7733 7.37442 17.2305 6.77081 18.75 6.77081H31.25C32.7695 6.77081 34.2267 7.37442 35.3011 8.44885C36.3756 9.52327 36.9792 10.9805 36.9792 12.5V41.6666C36.9792 42.2296 36.6764 42.749 36.1865 43.0263C35.6966 43.3037 35.0955 43.2961 34.6128 43.0065L25 37.2388L15.3872 43.0065C14.9045 43.2961 14.3033 43.3037 13.8135 43.0263C13.3236 42.749 13.0208 42.2296 13.0208 41.6666V12.5C13.0208 10.9805 13.6244 9.52327 14.6989 8.44885Z" fill="black"/>
</g>
<defs>
<clipPath id="clip0_306_7290">
<rect width="50" height="50" fill="white"/>
</clipPath>
</defs>
</svg>
