<?xml version="1.0" encoding="UTF-8"?>
<svg width="24px" height="24px" viewBox="0 0 24 24" version="1.1" xmlns="http://www.w3.org/2000/svg" xmlns:xlink="http://www.w3.org/1999/xlink">
    <title>ic_currency</title>
    <g id="ic_currency" stroke="none" stroke-width="1" fill="none" fill-rule="evenodd">
        <path d="M17.0968886,6.62048041 C17.3064915,6.97774713 17.1867863,7.43728574 16.8295196,7.64688862 C16.4722529,7.8564915 16.0127143,7.7367863 15.8031114,7.37951959 C15.0627342,6.11755154 13.5703668,5.50589176 12.1572802,5.88524387 C10.8056322,6.2481024 9.84529793,7.43209349 9.75664145,8.81084068 L9.75,9 L9.748,12.25 L13.9,12.25 C14.3142136,12.25 14.65,12.5857864 14.65,13 C14.65,13.3796958 14.3678461,13.693491 14.0017706,13.7431534 L13.9,13.75 L9.747,13.75 L9.74530955,16.5837476 C9.71456544,16.8573539 9.65438933,17.1229547 9.56766905,17.3769403 L9.542,17.445 L9.79567639,17.4316187 C10.5390181,17.40674 11.2943066,17.5041066 12.0353343,17.728215 L12.3125,17.8182055 C13.7013636,18.4547901 15.2986364,18.4547901 16.6875,17.8182055 C17.0640447,17.6456165 17.5092055,17.8109553 17.6817945,18.1875 C17.8543835,18.5640447 17.6890447,19.0092055 17.3125,19.1817945 C15.5268182,20.0002604 13.4731818,20.0002604 11.7552698,19.2089479 C10.5594173,18.7961373 9.26407536,18.8317192 8.1046082,19.2921574 L8.052,19.314 L7.98016182,19.3613244 C7.80859583,19.4665929 7.62737806,19.5587288 7.43772683,19.636209 L7.24530955,19.7087476 C6.38974786,20.004872 5.83937339,18.8125932 6.61973021,18.3535521 C6.78186376,18.2581778 6.94720095,18.1700223 7.11533228,18.0891559 L7.34,17.986 L7.3551636,17.9767433 C7.80552906,17.6479514 8.12073183,17.1680971 8.22509268,16.6548562 L8.25,16.5 L8.25,13.75 L6.9,13.75 C6.48578644,13.75 6.15,13.4142136 6.15,13 C6.15,12.6203042 6.43215388,12.306509 6.79822944,12.2568466 L6.9,12.25 L8.25,12.25 L8.25001362,8.99548041 C8.2628999,6.85711228 9.70308576,4.99097667 11.7683662,4.43653898 C13.8336466,3.88210129 16.0147989,4.77606558 17.0968886,6.62048041 Z" id="Shape" fill="#FF5851"></path>
    </g>
</svg>