<?xml version="1.0" encoding="UTF-8"?>
<svg width="24px" height="24px" viewBox="0 0 24 24" version="1.1" xmlns="http://www.w3.org/2000/svg" xmlns:xlink="http://www.w3.org/1999/xlink">
    <title>ic_call</title>
    <g id="ic_call" stroke="none" stroke-width="1" fill="none" fill-rule="evenodd">
        <path d="M9,3.25 C9.27260306,3.25 9.52079377,3.39752649 9.65257566,3.63029481 L9.69635752,3.72145699 L11.6963575,8.72145699 C11.8194005,9.02906449 11.725154,9.3761165 11.4749611,9.58051873 L11.3858718,9.64311969 L9.498,10.775 L9.5087529,10.7941349 C10.3412423,12.223195 11.5065576,13.4282816 12.9031031,14.3077993 L13.224,14.501 L14.3568803,12.6141282 C14.5273345,12.3300379 14.8606712,12.195078 15.1747961,12.2705918 L15.278543,12.3036425 L20.278543,14.3036425 C20.5316486,14.4048847 20.7072979,14.6340353 20.7432063,14.8990979 L20.75,15 L20.75,19 C20.75,20.5187831 19.5187831,21.75 17.9545061,21.7486201 C9.50376381,21.2350633 2.76493671,14.4962362 2.25,6 C2.25,4.53746816 3.3917046,3.34159572 4.83247767,3.25501879 L5,3.25 L9,3.25 Z M8.492,4.75 L5,4.75 C4.30964406,4.75 3.75,5.30964406 3.74861893,5.95450607 C4.21618452,13.6484654 10.3515346,19.7838155 18,20.25 C18.6472087,20.25 19.1795339,19.7581253 19.2435464,19.1278052 L19.25,19 L19.25,15.508 L15.314,13.933 L14.1431197,15.8858718 C13.9605553,16.1901458 13.5935723,16.3208802 13.2653461,16.2124234 L13.1682641,16.172645 C10.8486745,15.0286669 8.9713331,13.1513255 7.827355,10.8317359 C7.67040348,10.5134928 7.75920824,10.1341754 8.02811782,9.91695901 L8.11412818,9.85688031 L10.066,8.685 L8.492,4.75 Z" id="Path" fill="#FF5851"></path>
    </g>
</svg>