<?xml version="1.0" encoding="UTF-8"?>
<svg width="24px" height="24px" viewBox="0 0 24 24" version="1.1" xmlns="http://www.w3.org/2000/svg" xmlns:xlink="http://www.w3.org/1999/xlink">
    <title>ic_edit</title>
    <g id="ic_edit" stroke="none" stroke-width="1" fill="none" fill-rule="evenodd">
        <path d="M19.0303301,4.96966995 C20.3778834,6.31722328 20.4260103,8.47213666 19.1747108,9.87735857 L19.0303301,10.0303301 L8.53033009,20.5303301 C8.41780826,20.6428519 8.27321402,20.7159276 8.11803406,20.7406569 L8,20.75 L4,20.75 C3.62030423,20.75 3.30650904,20.4678461 3.25684662,20.1017706 L3.25,20 L3.25,16 C3.25,15.8408701 3.30057128,15.6869542 3.39281377,15.5597391 L3.46966991,15.4696699 L13.9696699,4.96966991 C15.3671326,3.57220722 17.6328673,3.57220724 19.0303301,4.96966995 Z M13.5,7.56057291 L4.75,16.31 L4.75,19.25 L7.688,19.25 L16.439,10.4995729 L13.5,7.56057291 Z M15.1557378,5.91466622 L15.0303301,6.03033009 L14.56,6.49957291 L17.499,9.43857291 L17.9696699,8.96966992 C18.7407624,8.19857745 18.779317,6.97234433 18.0853338,6.15573782 L17.9696699,6.03033012 C17.1985774,5.25923766 15.9723443,5.22068302 15.1557378,5.91466622 Z" id="Combined-Shape" fill="#FF5851" fill-rule="nonzero"></path>
    </g>
</svg>