<?xml version="1.0" encoding="UTF-8"?>
<svg width="24px" height="24px" viewBox="0 0 24 24" version="1.1" xmlns="http://www.w3.org/2000/svg" xmlns:xlink="http://www.w3.org/1999/xlink">
    <title>ic_map_pin</title>
    <g id="ic_map_pin" stroke="none" stroke-width="1" fill="none" fill-rule="evenodd">
        <path d="M5.8128688,4.81305403 C9.2299442,1.39603733 14.7700558,1.39603733 18.1871312,4.81305403 C21.6042066,8.23007073 21.6043018,13.7701823 18.1873301,17.1873301 L18.1873301,17.1873301 L13.9440625,21.4305975 C12.8703455,22.5032318 11.1306545,22.5032318 10.0567324,21.4303926 L10.0567324,21.4303926 L5.81265625,17.1873164 C2.39569824,13.7701823 2.39579341,8.23007073 5.8128688,4.81305403 Z M17.1264801,5.87372331 C14.2951891,3.0424809 9.70481091,3.0424809 6.87351987,5.87372331 C4.04222882,8.70496572 4.04214997,13.2953439 6.87326759,16.1266074 L6.87326759,16.1266074 L11.1170625,20.3694025 C11.6051157,20.8569635 12.3958843,20.8569635 12.8836699,20.3696699 L12.8836699,20.3696699 L17.1266563,16.1266836 C19.95785,13.2953439 19.9577712,8.70496572 17.1264801,5.87372331 Z M12,7.25 C14.0710678,7.25 15.75,8.92893219 15.75,11 C15.75,13.0710678 14.0710678,14.75 12,14.75 C9.92893219,14.75 8.25,13.0710678 8.25,11 C8.25,8.92893219 9.92893219,7.25 12,7.25 Z M12,8.75 C10.7573593,8.75 9.75,9.75735931 9.75,11 C9.75,12.2426407 10.7573593,13.25 12,13.25 C13.2426407,13.25 14.25,12.2426407 14.25,11 C14.25,9.75735931 13.2426407,8.75 12,8.75 Z" id="Combined-Shape" fill="#000000"></path>
    </g>
</svg>