<?xml version="1.0" encoding="UTF-8"?>
<svg width="24px" height="24px" viewBox="0 0 24 24" version="1.1" xmlns="http://www.w3.org/2000/svg" xmlns:xlink="http://www.w3.org/1999/xlink">
    <title>Icons/ic_ Copy 3</title>
    <g id="Icons/ic_-Copy-3" stroke="none" stroke-width="1" fill="none" fill-rule="evenodd">
        <path d="M14,14.25 C16.5504817,14.25 18.6314697,16.2601413 18.7451121,18.782572 L18.75,19 L18.75,21 C18.75,21.4142136 18.4142136,21.75 18,21.75 C17.6203042,21.75 17.306509,21.4678461 17.2568466,21.1017706 L17.25,21 L17.25,19 C17.25,17.2669685 15.8935452,15.8507541 14.1844239,15.7551448 L14,15.75 L10,15.75 C8.26696854,15.75 6.85075407,17.1064548 6.75514479,18.8155761 L6.75,19 L6.75,21 C6.75,21.4142136 6.41421356,21.75 6,21.75 C5.62030423,21.75 5.30650904,21.4678461 5.25684662,21.1017706 L5.25,21 L5.25,19 C5.25,16.4495183 7.26014129,14.3685303 9.782572,14.2548879 L10,14.25 L14,14.25 Z M12,2.25 C14.6233526,2.25 16.75,4.37664744 16.75,7 C16.75,9.62335256 14.6233526,11.75 12,11.75 C9.37664744,11.75 7.25,9.62335256 7.25,7 C7.25,4.37664744 9.37664744,2.25 12,2.25 Z M12,3.75 C10.2050746,3.75 8.75,5.20507456 8.75,7 C8.75,8.79492544 10.2050746,10.25 12,10.25 C13.7949254,10.25 15.25,8.79492544 15.25,7 C15.25,5.20507456 13.7949254,3.75 12,3.75 Z" id="Combined-Shape" fill="#000000"></path>
    </g>
</svg>