<?xml version="1.0" encoding="UTF-8"?>
<svg width="24px" height="24px" viewBox="0 0 24 24" version="1.1" xmlns="http://www.w3.org/2000/svg" xmlns:xlink="http://www.w3.org/1999/xlink">
    <title>ic_parking</title>
    <g id="ic_parking" stroke="none" stroke-width="1" fill="none" fill-rule="evenodd">
        <path d="M18,3.25 C19.5187831,3.25 20.75,4.48121694 20.75,6 L20.75,6 L20.75,18 C20.75,19.5187831 19.5187831,20.75 18,20.75 L18,20.75 L6,20.75 C4.48121694,20.75 3.25,19.5187831 3.25,18 L3.25,18 L3.25,6 C3.25,4.48121694 4.48121694,3.25 6,3.25 L6,3.25 Z M18,4.75 L6,4.75 C5.30964406,4.75 4.75,5.30964406 4.75,6 L4.75,6 L4.75,18 C4.75,18.6903559 5.30964406,19.25 6,19.25 L6,19.25 L18,19.25 C18.6903559,19.25 19.25,18.6903559 19.25,18 L19.25,18 L19.25,6 C19.25,5.30964406 18.6903559,4.75 18,4.75 L18,4.75 Z M13,7.25 C14.5187831,7.25 15.75,8.48121694 15.75,10 C15.75,11.4625318 14.6082954,12.6584043 13.1675223,12.7449812 L13,12.75 L9.75,12.75 L9.75,16 C9.75,16.3796958 9.46784612,16.693491 9.10177056,16.7431534 L9,16.75 C8.62030423,16.75 8.30650904,16.4678461 8.25684662,16.1017706 L8.25,16 L8.25,8 C8.25,7.62030423 8.53215388,7.30650904 8.89822944,7.25684662 L9,7.25 L13,7.25 Z M13,8.75 L9.75,8.75 L9.75,11.25 L13,11.25 C13.6903559,11.25 14.25,10.6903559 14.25,10 C14.25,9.35279131 13.7581253,8.8204661 13.1278052,8.75645361 L13,8.75 Z" id="Combined-Shape" fill="#FF5851"></path>
    </g>
</svg>