<?xml version="1.0" encoding="UTF-8"?>
<svg width="20px" height="20px" viewBox="0 0 20 20" version="1.1" xmlns="http://www.w3.org/2000/svg" xmlns:xlink="http://www.w3.org/1999/xlink">
    <title>ic_radiobtn_blank</title>
    <g id="Pages" stroke="none" stroke-width="1" fill="none" fill-rule="evenodd">
        <g id="3---Register" transform="translate(-910.000000, -722.000000)" fill="#FF5851">
            <g id="Group-8" transform="translate(908.000000, 125.000000)">
                <g id="Group-5" transform="translate(0.000000, 231.000000)">
                    <g id="Group-7" transform="translate(0.000000, 356.000000)">
                        <g id="Combined-Shape" transform="translate(0.000000, 8.000000)">
                            <path d="M12,2.25 C6.61522369,2.25 2.25,6.61522369 2.25,12 C2.25,17.3847763 6.61522369,21.75 12,21.75 C17.3847763,21.75 21.75,17.3847763 21.75,12 C21.75,6.61522369 17.3847763,2.25 12,2.25 Z M12,3.75 C16.5563492,3.75 20.25,7.44365081 20.25,12 C20.25,16.5563492 16.5563492,20.25 12,20.25 C7.44365081,20.25 3.75,16.5563492 3.75,12 C3.75,7.44365081 7.44365081,3.75 12,3.75 Z"></path>
                        </g>
                    </g>
                </g>
            </g>
        </g>
    </g>
</svg>